<svg id="Layer_1" enable-background="new 0 0 512.165 512.165" height="512" viewBox="0 0 512.165 512.165" width="512" xmlns="http://www.w3.org/2000/svg"><path d="m343.081 13.153c-90.002-38.78-263.71 3.398-242.456 191.041.961 8.486-.553 16.948-4.376 24.471l-25.917 50.979c-6.342 12.472 1.451 27.51 15.31 29.567l32.818 4.87c2.972 4.305.596 23.931-.003 29.799-5.849 57.27 1.398 72.179 64.749 73.538 7.954.17 15.467.331 20.981 1.354 3.138.583 5.263 3.608 4.737 6.746-.11.658.282-2.995-4.396 56.175-.216 2.727-.885 11.026 4.732 16.436 14.045 13.526 44.145-9.855 88.309 11.352 20.808 9.991 44.009-9.482 42.767-32.363-1.082-19.891-1.385-35.874-.875-46.222.225-4.566 2.284-8.893 5.65-11.87 70.698-62.506 182.93-326.175-2.03-405.873zm-122.547 473.367c-.471-2.561.251-5.285 4.232-58.747 1.721-11.547-6.127-22.591-17.659-24.732-18.542-3.44-49.325 1.204-66.352-8.583-2.794-1.606-4.692-4.403-5.946-7.988 14.462-2.474 36.015-5.355 56.582-5.035 4.394.058 8.056-3.456 8.124-7.874.069-4.418-3.456-8.055-7.874-8.125-21.496-.344-43.83 2.599-58.956 5.164-.012-2.275.047-4.546.154-6.809 62.242-9.122 92.772-61.295 143.761-28.85 60.612 38.568 7.206 71.423-1.823 150.642-6.185-1.026-12.019-1.439-17.455-1.485 8.227-29.333 15.68-72.483-2.086-96.341-2.64-3.544-7.649-4.276-11.194-1.639-3.543 2.639-4.277 7.651-1.638 11.194 10.944 14.698 10.145 47.248-2.001 87.667-7.926.813-16.871 2.195-19.869 1.541zm113.98-79.481c-6.576 5.816-10.598 14.225-11.032 23.07-.678 13.757.104 33.629.879 47.877.586 10.785-10.316 21.659-19.864 17.071-4.805-2.307-9.482-4.151-14.022-5.631 7.76-75.794 68.031-121.333-5.283-167.984-58.66-37.325-95.61 15.845-151.005 25.905 1.661-16.361 6.377-46.158-12.495-48.962l-33.702-5.001c-3.083-.457-4.788-3.747-3.396-6.489l25.918-50.98c5.247-10.323 7.326-21.916 6.012-33.522-19.595-172.978 139.212-209.455 220.225-174.546 170.689 73.548 61.488 322.851-2.235 379.192z"/><circle cx="223.243" cy="377.247" r="7.996"/></svg>